<svg id="Layer_1" xmlns="http://www.w3.org/2000/svg" viewBox="0 0 1000 1000">
    <style>
        .st0{fill:#fff}
    </style>
    <path d="M625.1 815.9c12 2 23.7 4.1 34.9 8.2 3-2.3 6.2-1 9.2-.6 7.8.9 15.6 2.2 23.4 3.1 3.3.4 4.6 1.6 5 4.9.1 1.3-.2 2.2-1.2 2.8-2.9 1.6-5.7 3.3-8.7 4.6-3.3 1.4-6.8 2.3-10.2 3.5-.4.2-.8.5-1.4.8.4.7.6 1.4 1.1 1.9 3.5 3.8 6.9 7.8 10.5 11.4 2.4 2.4 2.7 5.2.2 6.8-.7.5-1.9.6-2.8.4-4.4-1.1-8.9-2.3-13.2-3.7-3.4-1-6.9-2.1-10.2-3.5-2-.8-3.6-2.4-3.5-5.1-1.4.1-2.5.3-3.7.3-7.4.3-14.8.7-22.1 1-4.7.1-9.4-.6-13.8-2.3-3.4-1.3-6.8-1.2-10-.2-7.1 2-14 4.6-21 7.1-1.5.5-2.6.9-3.8-.4-.4-.4-.9-.8-1.4-1.1-2-1.6-1.9-2.1-1-4.5 1.9-4.9 4.4-9.4 6.8-14 .9-1.7 1.7-3.6 1.2-5.7-.2-.7 0-1.8.5-2.2 1.4-1.2 1.3-2.7 1.2-4.1-.8-15.3-1.7-30.5-2.5-45.8-.3-5.9-.5-11.8-.8-17.7 0-.5-.1-1-.1-1.6-1.4 0-2.7-.2-3.9 0-3.8.7-7.6 1.7-11.5 2.1-6.8.8-13.7 1.6-20.5 1.8-8.7.3-17.4.5-26.1 0-12.1-.7-24.1-1.9-36-4.2-4.9-.9-9.9-1.1-14.9-1.8-7.8-1-15.6-2.1-23.4-3.2-.5-.1-1-.1-1.9-.1-.1 1.5-.4 2.8-.3 4.2.8 10.3 1.6 20.5 2.4 30.8.4 5.7.7 11.4 1.1 17.1.4 4.8.9 9.5 1.5 14.3.2 1.8.8 3.7 1.2 5.5.6 2.6.3 5.2-.7 7.7-.6 1.6-.6 3 0 4.6 1.5 4.1 3 8.3 4.5 12.4.7 2 .6 2.6-.8 3.9-1.2 1.1-2.3 1.6-4 .9-3.5-1.4-7.2-2.3-10.8-3.6-2.8-1-5.6-2.1-8.4-3.1-1.1-.3-2.3-.4-3.4-.2-4.5.8-9 1.9-13.5 2.7-4.6.8-9.3 1.3-14 1.9-.8.1-1.6.2-2.5.3 0 2.8-1.8 4.5-4 5.5-7 3.5-13.1 8.3-19.2 13.1-2 1.6-4.6 1.7-6.6.3-1.2-.8-1.3-2.1-1.3-3.5-.1-4.8.1-9.6 1-14.3.2-.8.2-1.6.3-2.8h-3.2c-4.4.2-8.8.6-13.1-.2-1.3-.2-2.5-.7-3.7-1.1-2.2-.7-2.7-2.5-2.6-4.5 0-2 1.7-4.1 3.5-4.8 5-1.7 10-3.5 15-5.1 2.6-.8 5.2-1.6 7.8-2.1 3.7-.8 6.8-2.4 9.9-4.5 4.2-2.8 8.7-5.2 13.1-7.8 3.1-1.8 6.5-2.4 10-2.9 3.7-.6 7.5-1.2 11.2-1.8.9-.2 1.7-.5 2.9-.9 0-1.5.2-3 0-4.4-.8-5.9-1.7-11.8-2.6-17.8-.3-2-.7-3.9-1-5.9-1-8.2-2.1-16.4-2.9-24.6-.4-4.1-.3-8.2-.3-12.3 0-1.6-.6-2.6-1.9-3.4-7.2-4.3-14.4-8.6-21.4-13.2-6.6-4.3-12.4-9.7-17.5-15.7-4.1-4.8-7.7-10-10.8-15.4-3.3-5.9-6.2-12.1-8.7-18.4-2.4-6-3.6-12.3-4.6-18.5-.8-5-.8-10.1-1-15.2-.3-6.4-.6-12.8-.8-19.1-.2-7-.2-14-.4-20.9-.2-4.4-.8-8.7-1-13.1-.5-10.5-1-20.9-1.4-31.4-.1-1.4-.6-2.2-2-2.9-5.6-3-11.2-6.1-16.7-9.4-4.3-2.6-7.8-6-11.1-9.9-6.1-7.2-10.6-15.4-15.3-23.5-1.3-2.3-2.5-4.5-3.9-6.7-5-7.8-8.2-16.4-10.2-25.4-.5-2.1-.8-4.3-1.1-6.4-2.3-.1-4.3-.1-6.2-.3-2.6-.3-5-1.3-6.7-3.5-1.3-1.7-3.2-1.7-5.1-1.7-4.1.2-8.2.2-12.3.2-1.1 0-2.2-.1-3.2-.4-2.1-.6-2.9-3.5-1.3-5.1.9-.9 2.1-1.5 3.2-2.1 3.9-1.8 7.3-4.3 10.5-7.9-2.6-1.1-4.8-1.9-6.9-3-2.9-1.5-5.7-3.3-8.5-4.9-1.4-.8-2.2-1.9-1.8-3.4.5-1.7 1.6-3 3.4-3.4.8-.2 1.6 0 2.4 0 3.3-.2 6.6-.3 9.8-.7 1.9-.2 2.2-.7 1.9-2.6-1-7.4 0-14.7 1.3-22 .3-1.6-.1-3.3-.1-5 0-2.2 1.9-4.5 3.9-5 1.5-.3 2.8.2 3.6 1.5.5.8 1.1 1.8 1.2 2.7 1.4 7.4 5 13.8 8.1 20.6.6 1.2 1.4 1.6 2.7 2 2.7.7 5.1.3 7.4-1 5.9-3.1 11.8-6.2 17.7-9.4 2.2-1.2 4.3-1.1 5.7.4 1.2 1.3 1.1 2.5.5 4.1-2.4 6.9-4.8 13.7-7.1 20.7-.6 1.9-1.2 3.6-3.4 4.1 1.2 4.8 1.2 9.5.5 14.2-.1 1 .1 2.2.4 3.2 3.3 13.1 9.1 24.9 17.3 35.6 5.9 7.7 13 14.1 21.8 18.9.2-.9.6-1.6.6-2.3.3-6 .7-12 .7-17.9 0-4.5-.7-8.9-1-13.4-.3-5.7-.5-11.4-.8-17-.3-6-.9-11.9-1-17.9-.1-8.4.2-16.8.4-25.2.1-5.6.1-11.2.3-16.8.3-10.5.7-21 1-31.4.1-5.7 0-11.4.2-17.1.2-6.1.5-12.2.8-18.2.5-10.6.9-21.2 1.6-31.7.6-8.4 1.5-16.7 2.5-25 .6-5.2 1.3-10.3 2.3-15.4 2.1-10.7 5.2-21.1 10.9-30.5 3.1-5.1 6.3-10.2 9.9-15 3.6-4.8 8.1-8.7 12.9-12.4 8.8-6.8 18.3-12.5 28.4-17.1 7.1-3.2 14.4-5.9 21.7-8.6 8-3 16.1-5.9 24.3-8.5 4.2-1.4 8.7-2.1 13.1-3 5.7-1.1 11.3-2.2 17-3.2 7.2-1.3 14.4-1.9 21.8-1.8 5.2.1 10.4-.3 15.5-.1 9.6.3 19.3.7 28.9 1.6 4.1.4 8.2 1.7 12.2 3.1 12.7 4.5 23.3 12.2 32.6 21.8 8.2 8.4 13.9 18.4 18.8 29 5 10.6 7.9 22 11.1 33.2 4.7 16.8 8.8 33.8 11.9 51 1.9 10.3 3.2 20.7 4.4 31.1 1.3 10.4 2.2 20.8 3.2 31.3 1.2 12.5 2.4 25 3.5 37.6 1.7 18.5 3.3 37 4.9 55.5.7 7.8 1.4 15.5 2 23.3.5 7.1.9 14.2 1.4 21.2.2 2.3.5 4.5.7 6.8 1.8.6 3.1-.4 4.4-1 7.5-3.7 14.2-8.5 20.4-14 6.2-5.5 11.6-11.8 16.6-18.4 3-3.9 6.1-7.6 9-11.5 3.3-4.5 6.4-9.1 9.6-13.7.8-1.1 1-2.4.5-3.7-1.8-4.1-1.5-8.4-.8-12.7.2-1.3.1-2.4-.5-3.7-2.4-5.3-4.4-10.7-5.6-16.4-.3-1.5 0-3.1 0-4.8 2.8-2 5.5-1.3 8.2.3 3.6 2.1 7.2 4.2 10.9 6.2 1.6.9 2.9.5 4-.6 3.7-3.4 7.3-6.7 11.1-10 2.4-2.1 5-3.9 7.5-5.9 1.6-1.3 4.6-1.5 6.7-.3 1.9 1.1 2.4 3 2 4.9-.7 3.4-1.7 6.8-2.6 10.1-.2.7-.4 1.5-.7 2.6 1.7 0 3.2.2 4.6.1 2.9-.2 5.5.7 8.2 1.5 2.3.7 3.2 3.6 1.9 5.7-.6.9-1.4 1.7-2.3 2.3-2.4 1.6-4.9 3-7.4 4.6-.6.4-1 .8-1.8 1.5 1.6.9 3 1.6 4.3 2.5 2.4 1.7 4.9 3.4 7 5.5 2.3 2.3 1.1 6-2.2 6.7-1.4.3-2.8.4-4.2.3-4.4-.3-8.8.7-13.1.6-3.7-.1-5.7 1.6-7.5 4.2-1.6 2.3-3.8 4-5.8 5.9-2.1 2-3.8 4.4-5.2 6.9-3.1 5.1-5.8 10.5-8.8 15.7-2.6 4.5-4.9 9.2-7.9 13.4-3.9 5.6-7.7 11.3-12.5 16-5.7 5.8-11.7 11.4-18.3 16.3-7.2 5.3-15.3 8.9-23.3 12.8-2.3 1.1-2.9 2.6-3.1 4.8-1 10.9-.5 21.8-.4 32.7.1 7.5.2 15 .5 22.5.3 10.5.9 21 1.2 31.4.3 11 .1 22-.5 32.9-.2 4.2.2 8.4-.8 12.5-1 3.9-1.6 7.8-3.6 11.4-.6 1.1-1.2 2.3-1.5 3.6-1.4 4.5-4.3 8-7.7 11.2-9.2 8.8-19.3 16.3-29.7 23.6-2 1.4-3.2 3-3.1 5.6.3 11 .3 22 .5 33 .2 9.9.4 19.8.7 29.7.3.8.5 2.2.6 4zm-179.9 18.4c.2-1.6 0-3.6.8-4.7 1.7-2 1-3.9.5-5.9-.3-1.3-.7-2.7-.7-4-.2-4.7 0-9.4-.3-14.1-.7-10.4-1.8-20.7-2.4-31.1-.5-7.8-.6-15.5-.9-23.3-.1-1.6.7-2.8 2.2-3.2 1.2-.3 2.6-.6 3.7-.4 2.8.5 5.6 1.6 8.4 2 6.5.8 13.1 1.4 19.7 2 4.3.4 8.6.5 12.8 1 5.5.7 11 1.8 16.6 2.4 11 1.2 22 2.5 33.2 1.6 2.4-.2 4.8.4 7.1.2 4-.2 7.9-.8 11.9-.9 9.7-.3 19.2-2.3 28.7-4.4 2.3-.5 4.3-.4 6.2 1.1 2 1.6 3.4 3.4 2.4 6.2-.2.6-.1 1.4 0 2.1.5 8.2 1 16.3 1.5 24.5.5 9.3 1 18.6 1.5 27.8.3 5 1.2 10 1 14.9-.1 3.7 1.7 5.5 4.4 6.9 3.7 2 7.3 4.1 11.2 5.8 7.2 3.2 14.7 5 22.7 4.4 4.1-.3 8.2-.2 12.3-.5 3.1-.2 6.1-.7 9.2-1.3 2.9-.6 5.3-4.5 4.7-7.5-.1-.6-.6-1.3-1.1-1.6-1.9-1.2-3.8-2.6-6-3.3-3.6-1.3-7.2-2.3-10.9-3.1-5.6-1.3-11.3-2.4-17-3.7-1.6-.3-2.9-.2-4.4 1-2.7 2.1-4.4 1.7-6.8-.7-.6-.6-1.3-1.2-1.9-1.9-1.7-1.8-1.8-3.8.2-5.3 1-.8 1.5-1.8 1.6-3 0-1 .1-2 .1-3-.2-7.9-.4-15.8-.5-23.7l-.3-18.6c-.1-3.8-.1-7.5-.2-11.3-.1-5 0-10-.2-14.9-.1-1.7.3-2.8 1.9-3.7 3.5-2 7.1-4.1 10.4-6.5 6.4-4.7 12.7-9.6 19-14.6 4.5-3.6 8.4-7.7 10.3-13.3.7-2 1.4-3.9 2.2-5.9 1.3-3.6 2.2-7.2 2.2-11.1 0-2.7-.1-5.4 0-8.1.2-4.7.8-9.3.8-14 0-10.7-.3-21.4-.4-32.1-.1-7.3-.3-14.6-.4-21.9-.1-6.2-.2-12.4-.1-18.6.1-9.9.4-19.8.5-29.7 0-2.4.7-4.7-.3-7.1-.5-1.2.1-2.6 1.3-3.4 1.3-.9 2.6-1.8 4.1-2.5 2.8-1.4 5.6-2.6 8.4-3.9 3.5-1.7 7-3.4 10.3-5.4 5.8-3.4 10.6-8 15.7-12.4 8.4-7.3 15-16 20.8-25.4 3.3-5.3 6.1-11 9.1-16.5 1.9-3.5 3.9-7 5.5-10.6 1.5-3.3 3.7-5.9 6.6-7.8 2.9-2 5.3-4.5 7.4-7.3 4.2-5.5 4.6-11.8 3.2-18.2-.8-3.6-5.9-5.3-8.8-3.2-.3.2-.6.6-.7.9-.5 2.2-2.1 2.6-3.9 2.4-1.6-.1-2.7.6-3.6 1.7-.8.9-1.4 1.9-2.1 2.9-.7 1-1 2.1-.3 3.4.9 1.9.3 3.4-1.3 4.7-.5.4-.9 1.2-.8 1.7.1 1.4.4 2.9 1.6 4 2.6 2.5 2.6 4.4.4 7.3-2 2.5-3.8 5.1-5.8 7.7-7.7 10-15.3 20.2-23.3 30-8.2 10.1-18.5 17.9-29.7 24.4-4.7 2.7-9.7 4.6-15.1 5.6-3 .5-5.3-.5-7.2-2.7-.7-.8-.7-1.6-.2-2.5.4-.6 1-1.4 1.6-1.7 1.4-.8 1.6-1.9 1.5-3.3-.2-2.8-.4-5.6-.5-8.4-.4-7.4-.7-14.8-1.3-22.1-.6-8.3-1.5-16.5-2.2-24.8-.8-9-1.5-18.1-2.3-27.2-.9-9.8-1.8-19.7-2.7-29.5-.5-5.9-.8-11.8-1.4-17.6-.5-5.5-1.4-10.9-1.9-16.3-.9-9.1-1.7-18.3-2.6-27.4-1.6-15.9-4.1-31.7-7.6-47.3-2-8.7-3.8-17.4-6.1-25.9-2.3-8.8-4.9-17.5-7.5-26.2-2.4-8.5-5.9-16.6-10.1-24.3-5.7-10.5-13.2-19.5-22.9-26.6-9.8-7.2-20.4-12.5-32.6-14.1-10.2-1.3-20.5-1.5-30.8-1.4-11.2.1-22.4 0-33.4 2-8.8 1.6-17.7 3-26.3 5.9-7.6 2.5-15.2 5-22.7 7.7-7 2.5-13.9 4.9-20.7 7.8-8.9 3.9-17.3 8.8-25 14.7-4.1 3.1-8.1 6.5-11.8 10.2-6.5 6.5-11.2 14.3-15 22.6-2.4 5-4.4 10.3-5.8 15.7-1.6 6.2-2.7 12.5-3.4 18.8-1.3 10.5-2.4 21-3.2 31.6-.9 11.6-1.4 23.1-1.8 34.7-.6 15.4-.9 30.8-1.3 46.1-.2 8.2 0 16.4-.4 24.6-.6 12.7-1.2 25.3-.4 38 .2 3.3.5 6.6.7 9.9.4 6.9.7 13.8 1.1 20.6.3 5.1.6 10.2.7 15.3 0 3.3-.5 6.6-.5 9.9 0 3.8.3 7.6.6 11.3.3 4.1-.8 5.2-4.1 5.4-1.1.1-2.3-.6-3.3-1.2-5.2-3.5-10.5-7-15.4-10.8-3.7-3-7.2-6.4-10.3-9.9-2.5-2.8-4.4-6.2-6.5-9.3-2.1-3.4-4.3-6.7-6.1-10.3-3.2-6.2-5.6-12.8-7.7-19.5-.3-.9-1-1.7-1.7-2.2-1.1-.8-1.4-1.7-1-2.8.6-1.6.3-2.9-.7-4.2-.9-1.3-.7-2.5.5-3.4 1.4-1.1 1.6-2.5 1.4-4-1.2-7.2-5-12.4-11.7-15.5-4.5-2.1-9.4-.3-12.2 3.5-4.6 6.3-4.7 16.6 0 22.8 2.6 3.4 6 4.2 9.7 2 3.1-1.8 5.6-.3 6 3.4 1 9.2 3.1 18.1 7.5 26.3 5.8 10.8 11.9 21.5 18.9 31.6 2.3 3.3 5.1 6.4 8 9.3 5.7 5.8 13.2 8.6 20.4 11.7 2.7 1.2 4.1 2.6 3.8 5.6 2.3.6 2.8 2.1 2.8 4.3 0 4.7.3 9.4.5 14.1.7 14.5 1.3 28.9 2 43.4.5 11.5.9 23 1.6 34.4.3 5.2 1 10.4 2.4 15.3 3.4 12.4 9.1 23.9 16.4 34.5 5.8 8.3 12.6 15.5 21.2 20.9 7.1 4.4 14.3 8.7 21.6 12.9 2.2 1.3 3.7 2.6 3.4 5.4-.2 1.7-.1 3.3-.1 5-.5 12.6 1.9 24.9 3.8 37.2 1.6 9.7 3.2 19.3 4.7 29 .1.8 0 2-.6 2.5-1.9 2-3.7 4.6-7.2 3.6-.8-.2-1.8-.1-2.7 0-2.8.3-5.5.8-8.3 1.1-12 1.2-21.2 7.5-29.7 15.4-.7.6-1.1 1.5-1.9 2.7 1.5.4 2.5.8 3.5 1 5.2 1 10.5 1.2 15.8 1 12.1-.6 23.9-3.3 35.6-6.3 3.2-1 7-2.4 9-6zM307.8 439.1c-.1-.2-.3-.4-.4-.6-3.1 1.7-6.2 3.5-9.4 5.3 2 2.3 3.7 4.2 5.6 6.3 2.2-3.6 3.1-7.4 4.2-11zm82.4 415.6c-.1-.2-.1-.5-.2-.7-3.2-.4-6.3-.7-9.7-1.1-.5 2.9-.8 5.5-1.2 8.1.2.1.4.3.6.4 3.6-2 6.8-4.7 10.5-6.7zm201.6-8c.1.2.3.4.4.6 3.6-.9 7.3-1.9 10.9-2.8 0-.2.1-.5.1-.7-2.5-1.4-5-2.8-7.8-4.4-1.2 2.6-2.4 4.9-3.6 7.3zm91.3-13.8c-4-1.3-8-1.6-12.3-2 .5 2.1.9 3.7 1.4 5.5 3.9-.3 7.3-1.9 10.9-3.5zm-8.2 20.4c-2.1-2.5-3.8-5.4-6.5-7.3-1.4 1.1-2.6 2.1-4 3.1 3.1 2.7 6.7 3.4 10.5 4.2zm-401.5-421c-.2.1-.4.1-.7.2-.3 3.7-.2 7.4.4 11.4 1.7-1.3 3-2.3 4.4-3.3-1.4-2.8-2.8-5.6-4.1-8.3zM450 846.8c-.7-1.8-1.1-2.9-1.6-4.3-1.5 1-2.6 1.7-3.8 2.5.1.2.1.5.2.7 1.5.2 3 .6 5.2 1.1zm304.9-414.6c1.1.7 1.9 1.1 2.7 1.6.8-1.5 1.5-2.8 1.4-4.9-1.4 1.2-2.6 2.1-4.1 3.3zm-24.5 9.7c1-1.3 1.6-2 2.3-3-1.4-.5-2.3-1.6-4-1.4.5 1.5 1 2.6 1.7 4.4zm36.3 15.8c-3.7-2.4-4.1-2.4-4.7.5 1.6-.1 2.9-.3 4.7-.5zm-503.2-4.2c0 .2-.1.4-.1.5 1.1.5 2.3 1 3.7 1.6v-2.5c-1.4.2-2.5.3-3.6.4zm108 389.9c-1 .3-2 .5-3.7 1 2.5.8 2.5.8 3.7-1z"/>
    <path class="st0" d="M445.2 834.3c-1.9 3.6-5.7 5-9.4 6-11.7 3-23.5 5.7-35.6 6.3-5.3.3-10.6 0-15.8-1-1-.2-2.1-.6-3.5-1 .8-1.1 1.3-2 1.9-2.7 8.4-7.9 17.7-14.2 29.7-15.4 2.8-.3 5.5-.8 8.3-1.1.9-.1 1.9-.3 2.7 0 3.5 1 5.3-1.6 7.2-3.6.5-.5.7-1.7.6-2.5-1.5-9.7-3.2-19.3-4.7-29-2-12.3-4.4-24.6-3.8-37.2.1-1.7 0-3.4.1-5 .3-2.7-1.2-4.1-3.4-5.4-7.3-4.2-14.5-8.4-21.6-12.9-8.6-5.4-15.4-12.6-21.2-20.9-7.4-10.6-13.1-22-16.4-34.5-1.3-5-2-10.2-2.4-15.3-.8-11.5-1.1-22.9-1.6-34.4-.7-14.5-1.3-28.9-2-43.4-.2-4.7-.5-9.4-.5-14.1 0-2.2-.5-3.7-2.8-4.3.3-3-1.1-4.4-3.8-5.6-7.2-3.1-14.7-5.9-20.4-11.7-2.9-2.9-5.7-5.9-8-9.3-7-10.1-13.1-20.8-18.9-31.6-4.4-8.2-6.5-17.1-7.5-26.3-.4-3.7-2.9-5.2-6-3.4-3.7 2.1-7.1 1.4-9.7-2-4.6-6.2-4.6-16.5 0-22.8 2.7-3.8 7.6-5.6 12.2-3.5 6.8 3.1 10.5 8.3 11.7 15.5.3 1.6 0 2.9-1.4 4-1.2.9-1.4 2.2-.5 3.4 1 1.3 1.3 2.6.7 4.2-.4 1.1-.1 2 1 2.8.7.5 1.4 1.4 1.7 2.2 2 6.7 4.5 13.2 7.7 19.5 1.8 3.5 4 6.9 6.1 10.3 2 3.2 4 6.5 6.5 9.3 3.2 3.6 6.6 7 10.3 9.9 4.9 3.9 10.2 7.3 15.4 10.8 1 .6 2.2 1.3 3.3 1.2 3.3-.2 4.4-1.4 4.1-5.4-.3-3.8-.5-7.6-.6-11.3 0-3.3.5-6.6.5-9.9-.1-5.1-.4-10.2-.7-15.3-.3-6.9-.7-13.8-1.1-20.6-.2-3.3-.5-6.6-.7-9.9-.7-12.7-.1-25.3.4-38 .4-8.2.2-16.4.4-24.6.4-15.4.7-30.8 1.3-46.1.4-11.6.9-23.2 1.8-34.7.8-10.5 1.9-21.1 3.2-31.6.8-6.3 1.8-12.7 3.4-18.8 1.4-5.4 3.5-10.6 5.8-15.7 3.9-8.3 8.5-16.1 15-22.6 3.7-3.7 7.7-7 11.8-10.2 7.7-5.9 16.1-10.8 25-14.7 6.8-2.9 13.8-5.4 20.7-7.8 7.5-2.7 15.1-5.2 22.7-7.7 8.6-2.8 17.5-4.2 26.3-5.9 11.1-2 22.3-1.9 33.4-2 10.3-.1 20.6.1 30.8 1.4 12.2 1.6 22.8 6.9 32.6 14.1 9.7 7.1 17.2 16 22.9 26.6 4.2 7.7 7.6 15.8 10.1 24.3 2.5 8.7 5.2 17.4 7.5 26.2 2.2 8.6 4.1 17.3 6.1 25.9 3.5 15.6 6 31.4 7.6 47.3.9 9.1 1.7 18.3 2.6 27.4.6 5.5 1.4 10.9 1.9 16.3.6 5.9.9 11.7 1.4 17.6.9 9.8 1.8 19.7 2.7 29.5.8 9 1.5 18.1 2.3 27.2.7 8.3 1.6 16.5 2.2 24.8.6 7.4.9 14.7 1.3 22.1.2 2.8.3 5.6.5 8.4.1 1.4-.1 2.5-1.5 3.3-.7.4-1.2 1.1-1.6 1.7-.6.8-.5 1.6.2 2.5 1.9 2.2 4.2 3.2 7.2 2.7 5.4-1 10.4-2.8 15.1-5.6 11.2-6.5 21.5-14.3 29.7-24.4 8-9.8 15.6-20 23.3-30 2-2.5 3.8-5.1 5.8-7.7 2.3-2.9 2.2-4.7-.4-7.3-1.2-1.2-1.4-2.6-1.6-4-.1-.5.4-1.4.8-1.7 1.6-1.3 2.2-2.8 1.3-4.7-.6-1.3-.3-2.3.3-3.4.6-1 1.3-2 2.1-2.9.9-1.1 1.9-1.8 3.6-1.7 1.7.1 3.4-.3 3.9-2.4.1-.3.4-.7.7-.9 2.9-2.1 8-.4 8.8 3.2 1.4 6.5 1 12.7-3.2 18.2-2.1 2.8-4.5 5.3-7.4 7.3-2.8 1.9-5.1 4.5-6.6 7.8-1.6 3.6-3.6 7.1-5.5 10.6-3 5.5-5.8 11.2-9.1 16.5-5.8 9.3-12.4 18.1-20.8 25.4-5.1 4.4-10 8.9-15.7 12.4-3.3 2-6.8 3.7-10.3 5.4-2.8 1.4-5.6 2.6-8.4 3.9-1.4.7-2.7 1.7-4.1 2.5-1.2.8-1.9 2.1-1.3 3.4 1 2.4.3 4.7.3 7.1-.1 9.9-.4 19.8-.5 29.7-.1 6.2 0 12.4.1 18.6.1 7.3.3 14.6.4 21.9.2 10.7.4 21.4.4 32.1 0 4.7-.6 9.3-.8 14-.1 2.7 0 5.4 0 8.1 0 3.8-.9 7.5-2.2 11.1-.7 2-1.5 3.9-2.2 5.9-2 5.6-5.8 9.7-10.3 13.3-6.2 5-12.6 9.9-19 14.6-3.3 2.4-6.8 4.4-10.4 6.5-1.5.9-1.9 1.9-1.9 3.7.2 5 .2 10 .2 14.9.1 3.8.1 7.5.2 11.3l.3 18.6c.2 7.9.4 15.8.5 23.7 0 1-.1 2-.1 3 0 1.3-.5 2.2-1.6 3-1.9 1.6-1.9 3.5-.2 5.3.6.6 1.3 1.2 1.9 1.9 2.4 2.5 4.1 2.8 6.8.7 1.5-1.1 2.8-1.3 4.4-1 5.7 1.2 11.3 2.3 17 3.7 3.7.9 7.4 1.9 10.9 3.1 2.1.8 4 2.1 6 3.3.5.3 1 1 1.1 1.6.6 2.9-1.8 6.8-4.7 7.5-3 .6-6.1 1.1-9.2 1.3-4.1.3-8.2.2-12.3.5-8 .6-15.5-1.2-22.7-4.4-3.8-1.7-7.5-3.8-11.2-5.8-2.7-1.5-4.5-3.2-4.4-6.9.1-5-.7-9.9-1-14.9-.6-9.3-1-18.6-1.5-27.8-.5-8.2-1-16.3-1.5-24.5 0-.7-.2-1.5 0-2.1.9-2.8-.5-4.6-2.4-6.2-1.8-1.5-3.9-1.6-6.2-1.1-9.5 2.1-18.9 4.1-28.7 4.4-4 .1-7.9.7-11.9.9-2.4.1-4.8-.4-7.1-.2-11.1.9-22.1-.4-33.2-1.6-5.5-.6-11-1.7-16.6-2.4-4.3-.5-8.6-.6-12.8-1-6.6-.6-13.1-1.1-19.7-2-2.8-.4-5.6-1.5-8.4-2-1.2-.2-2.6 0-3.7.4-1.5.4-2.2 1.5-2.2 3.2.3 7.8.4 15.6.9 23.3.7 10.4 1.7 20.7 2.4 31.1.3 4.7.1 9.4.3 14.1 0 1.4.4 2.7.7 4 .5 2 1.2 3.8-.5 5.9-.5 1.1-.2 3.1-.4 4.7zM578.7 412h.1c0-2.5.1-5 0-7.5-.1-5.6-.1-11.2-.6-16.7-.4-4.9-1.3-9.7-1.9-14.5-.4-2.8-1.3-5.5-3.3-7.5-2.6-2.7-5.6-4.7-9.1-6.2-3.6-1.5-7.3-2.7-11-3.5-3.4-.7-6.9-1.1-10.4-1.2-4.5 0-9 .5-13.4.7-7.4.4-14.8.7-22.1 1.2-5.7.4-11.3 1.1-17 1.5-3.8.3-7.7.6-11.6.7-3.7.1-7.4 1.2-11.2 1.8-2.7.4-5.2 1.3-7.3 3.1-1.5 1.3-3.2 1.8-5.1 2.2-3.4.7-6.8 1.6-10.1 2.7-3.7 1.2-7.2 2.8-9.8 5.9-4.5 5.5-6.8 12-7.7 18.8-1.1 7.8-.8 15.7.2 23.6.7 5.4 1.7 10.9 2.2 16.3.7 6.8 1.1 13.7 1.7 20.6.6 7.6 1.2 15.1 1.7 22.7.4 5.5.8 10.9 1.3 16.4.4 3.9 1 7.7 1.5 11.6 1.3 11.5 2.5 23 3.8 34.5.5 4.5 1.3 8.9 2 13.3.9 5.4 1.7 10.8 2.7 16.2 1 5.6 3.3 10.7 6 15.6 3.4 6.3 7.9 11.8 14.4 15.2 5.9 3 12.3 4.4 18.7 4.8 5.9.3 11.8-.1 17.6-.2 7.9-.2 15.7-.6 23.4-2.5 3.4-.9 6.8-1.3 10.2-2.2 4.3-1.2 8.6-2.7 12.9-3.9 1.9-.6 4.1-.5 5.8-1.3 5.1-2.4 10.2-5 15.2-7.7.9-.5 1.7-1.4 2.3-2.3 1.4-2.1 2.9-4.3 3.4-6.9 1.1-5.2 2.5-10.3 3.1-15.5 1.1-9.2 1.9-18.5 2.6-27.7.6-7.2.6-14.4 1.2-21.5 1-10.9.2-21.7-.3-32.6-.3-6.4-.6-12.8-.9-19.1-.2-4.3-.4-8.6-.6-12.8-.2-5-.5-9.9-.6-14.9-.1-7.2 0-14.2 0-21.2zM437.1 286.2v-3.6c-.2-3.7-1.8-6.5-5.4-7.8-3-1.1-6.1-.7-9.1.1-4.4 1.2-7.6 3.6-8.5 8.5-1.3 7.2 1.3 12.2 7.6 15.6 1.8 1 3.8 1.1 5.8.5 3.7-1 6.1-3.6 8.4-6.4 1.6-1.9 1.2-4.1 1.2-6.3v-.6zm135.5 16c6-.1 9.1-2.8 11.8-7.7 2.5-4.3 2.2-8.9-.7-12-2.9-3-7.8-5.6-12.7-3.5-1.6.7-3.2 1.1-4.7 1.9-1.5.8-3.5 1.7-4.3 3-1.5 2.7-2.3 5.8-1.5 8.9 1.3 5.6 6.2 9.3 12.1 9.4z"/>
    <path class="st0" d="M591.8 846.7c.1.2.3.4.4.6 3.6-.9 7.3-1.9 10.9-2.8 0-.2.1-.5.1-.7-2.5-1.4-5-2.8-7.8-4.4-1.2 2.6-2.4 4.9-3.6 7.3z"/>
    <path class="st0" d="M683.1 832.9c-4-1.3-8-1.6-12.3-2 .5 2.1.9 3.7 1.4 5.5 3.9-.3 7.3-1.9 10.9-3.5z"/>
    <path class="st0" d="M668.3 845.9c-1.4 1.1-2.6 2.1-4 3.1 3.2 2.7 6.8 3.4 10.6 4.2-2.2-2.4-3.8-5.3-6.6-7.3z"/>
    <path class="st0" d="M754.9 432.2c1.1.7 1.9 1.1 2.7 1.6.8-1.5 1.5-2.8 1.4-4.9-1.4 1.2-2.6 2.1-4.1 3.3z"/>
    <path class="st0" d="M766.8 440.4c.4 1.3.6 2.1.8 3.1 1.7-.5 3.1-1 4.5-2.6-1.9-.2-3.3-.3-5.3-.5z"/>
    <path class="st0" d="M728.7 437.6c.6 1.4 1 2.5 1.7 4.3 1-1.3 1.6-2 2.3-3-1.5-.5-2.3-1.6-4-1.3z"/>
    <path class="st0" d="M762 458.2c1.5-.2 2.9-.3 4.7-.5-3.7-2.4-4-2.3-4.7.5z"/>
    <path class="st0" d="M307.8 439.1c-1.2 3.6-2 7.4-4.3 10.9-1.9-2.1-3.6-4-5.6-6.3 3.2-1.8 6.3-3.5 9.4-5.3.3.3.4.5.5.7z"/>
    <path class="st0" d="M273.4 432.3c1.3 2.7 2.7 5.4 4.1 8.3-1.3 1-2.6 2-4.4 3.3-.6-4.1-.8-7.7-.4-11.4.2 0 .5-.1.7-.2z"/>
    <path class="st0" d="M263.5 453.5c1.1-.1 2.2-.2 3.6-.3v2.5c-1.4-.6-2.6-1.1-3.7-1.6 0-.2 0-.4.1-.6z"/>
    <path class="st0" d="M263.1 471.7c.9-.7 1.7-1.4 2.8-2.3.4.7.8 1.2 1.4 2.1-1.5.3-2.7.5-4 .7-.1-.2-.1-.3-.2-.5z"/>
    <path class="st0" d="M380.3 852.9c-.5 2.9-.8 5.5-1.2 8.1.2.1.4.3.6.4 3.7-2 6.9-4.8 10.6-6.7-.1-.2-.1-.5-.2-.7-3.3-.4-6.4-.7-9.8-1.1z"/>
    <path class="st0" d="M448.3 842.4c-1.5 1-2.6 1.7-3.8 2.5.1.2.1.5.2.7 1.5.3 3.1.7 5.2 1.2-.6-1.8-1-2.9-1.6-4.4z"/>
    <path class="st0" d="M371.5 843.4c-1 .3-2 .5-3.7 1 2.5.8 2.5.8 3.7-1z"/>
    <path d="M437.1 286.2v-3.6c-.2-3.7-1.8-6.5-5.4-7.8-3-1.1-6.1-.7-9.1.1-4.4 1.2-7.6 3.6-8.5 8.5-1.3 7.2 1.3 12.2 7.6 15.6 1.8 1 3.8 1.1 5.8.5 3.7-1 6.1-3.6 8.4-6.4 1.6-1.9 1.2-4.1 1.2-6.3v-.6zm-8.9-1.7c-2.3 1.3-4.5 2.7-6.9 4.2-1.2-5.2 1.7-8.1 7.7-7.7 1.1 1.5.8 2.6-.8 3.5z"/>
    <path d="M583.7 282.6c-2.9-3-7.8-5.6-12.7-3.5-1.6.7-3.2 1.1-4.7 1.9-1.5.8-3.5 1.7-4.3 3-1.5 2.7-2.3 5.8-1.5 8.9 1.3 5.4 6.2 9.1 12.1 9.2 6-.1 9.1-2.8 11.8-7.7 2.5-4.2 2.3-8.8-.7-11.8zm-15.3 9c-.1-3.6.1-3.9 3.1-4.8.7-.2 1.4-.7 2-1.2 2.2-1.5 3.9-1 5.1 2-3.4 1.8-6.6 3.3-10.2 4z"/>
    <path d="M580.9 479.9c-.3-6.4-.6-12.8-.9-19.1-.2-4.3-.4-8.6-.6-12.8-.2-5-.5-9.9-.6-14.9-.1-7 0-14 0-21h.1c0-2.5.1-5 0-7.5-.1-5.6-.1-11.2-.6-16.7-.4-4.9-1.3-9.7-1.9-14.5-.4-2.8-1.3-5.5-3.3-7.5-2.6-2.7-5.6-4.7-9.1-6.2-3.6-1.5-7.3-2.7-11-3.5-3.4-.7-6.9-1.1-10.4-1.2-4.5 0-9 .5-13.4.7-7.4.4-14.8.7-22.1 1.2-5.7.4-11.3 1.1-17 1.5-3.8.3-7.7.6-11.6.7-3.7.1-7.4 1.2-11.2 1.8-2.7.4-5.2 1.3-7.3 3.1-1.5 1.3-3.2 1.8-5.1 2.2-3.4.7-6.8 1.6-10.1 2.7-3.7 1.2-7.2 2.8-9.8 5.9-4.5 5.5-6.8 12-7.7 18.8-1.1 7.8-.8 15.7.2 23.6.7 5.4 1.7 10.9 2.2 16.3.7 6.8 1.1 13.7 1.7 20.6.6 7.6 1.2 15.1 1.7 22.7.4 5.5.8 10.9 1.3 16.4.4 3.9 1 7.7 1.5 11.6 1.3 11.5 2.5 23 3.8 34.5.5 4.5 1.3 8.9 2 13.3.9 5.4 1.7 10.8 2.7 16.2 1 5.6 3.3 10.7 6 15.6 3.4 6.3 7.9 11.8 14.4 15.2 5.9 3 12.3 4.4 18.7 4.8 5.9.3 11.8-.1 17.6-.2 7.9-.2 15.7-.6 23.4-2.5 3.4-.9 6.8-1.3 10.2-2.2 4.3-1.2 8.6-2.7 12.9-3.9 1.9-.6 4.1-.5 5.8-1.3 5.1-2.4 10.2-5 15.2-7.7.9-.5 1.7-1.4 2.3-2.3 1.4-2.1 2.9-4.3 3.4-6.9 1.1-5.2 2.5-10.3 3.1-15.5 1.1-9.2 1.9-18.5 2.6-27.7.6-7.2.6-14.4 1.2-21.5.9-11.1.1-22-.3-32.8zm-49.3-117.6c.8-.2 1.4-.5 2.1-.6 7.3-.6 14.6-.4 21.6 2 2.3.8 4.7 1.7 6.9 2.7 3.5 1.6 5.7 4.3 6.3 8.2.1.7.2 1.4.4 2.1.6 1.7.3 3-1.4 4.1-1.4.9-2.2 2.1-1.6 4.1.4 1.1 0 2.6-.2 3.8-1.6 9.9-3.2 19.9-4.9 29.8-1.3 7.4-2.7 14.7-4.1 22-.6 3.3-1 6.7-1.5 10.1-.9 5.4-2 10.8-2.8 16.2-.9 5.7-1.6 11.4-2.4 17.2-.1.8-.4 1.6-.6 2.4h-.6c-.8-4.1-1.6-8.2-2.4-12.2-2.5-11.8-3.6-23.9-5-35.8-1.6-13.4-3.3-26.7-5.1-40.1-.9-7-2.1-14-3.2-21-.2-1.7-.3-3.4-.5-5.1-.3-2.6-.8-5.3-1.1-7.9 0-.7.1-1.3.1-2zm-48.4 3c2.7-.3 5.4-.5 8.1-.7 5.9-.5 11.7-1.1 17.6-1.6 4.5-.4 8.9-.6 14-.9-1.5 12.9-3 25.1-4.3 37.4-.7 6.7-.9 13.5-1.5 20.3-.9 9.9-.6 19.7-.7 29.6 0 2.8-.3 5.6-.4 8.4-.6 10.4-1.2 20.7-1.8 31.1 0 .4-.1.8-.7 1.3-.7-2.1-1.4-4.2-2-6.3-3-10-6.1-20-8.8-30.2-2.5-9.7-4.6-19.6-6.7-29.5-3.1-14.1-6.1-28.3-9.2-42.4-.7-3.4-1.6-6.8-2.6-10.1-.4-1.4-1.2-2.7-2-3.9-.9-1.5-.7-2.3 1-2.5zm-9.9 3.5v3.9c.1 15.9.6 31.7 1.8 47.5.4 6 .4 12 .7 17.9.4 7.2 1 14.3 1.4 21.5.4 6 .6 12 .9 17.9.3 5.2.7 10.3 1.1 15.5 0 .4-.1.8-.2 1.7-3.4-5.5-32-113.1-32.1-120.4 8.5-2.2 17-4.8 26.4-5.5z"/>
    <path class="st0" d="M491.2 364.6c-2.7.2-5.4.4-8.1.7-1.7.2-1.9 1-1 2.3.8 1.2 1.6 2.5 2 3.9 1 3.3 1.8 6.7 2.6 10.1 3.1 14.1 6.1 28.3 9.2 42.4 2.2 9.8 4.2 19.7 6.7 29.5 2.6 10.1 5.8 20.1 8.8 30.2.6 2.1 1.3 4.2 2 6.3.5-.5.6-.9.7-1.3.6-10.4 1.2-20.7 1.8-31.1.2-2.8.4-5.6.4-8.4 0-9.9-.3-19.8.7-29.6.6-6.8.8-13.5 1.5-20.3 1.3-12.3 2.8-24.5 4.3-37.4-5.1.3-9.6.6-14 .9-5.8.7-11.7 1.3-17.6 1.8z"/>
    <path class="st0" d="M568.9 376.8c-.2-.7-.3-1.4-.4-2.1-.6-3.9-2.8-6.6-6.3-8.2-2.3-1-4.6-1.9-6.9-2.7-7-2.4-14.3-2.7-21.6-2-.7.1-1.3.3-2.1.6 0 .7-.1 1.3 0 1.9.4 2.6.8 5.3 1.1 7.9.2 1.7.2 3.4.5 5.1 1 7 2.2 14 3.2 21 1.8 13.4 3.5 26.7 5.1 40.1 1.4 12 2.5 24 5 35.8.9 4.1 1.6 8.2 2.4 12.2h.6c.2-.8.5-1.6.6-2.4.8-5.7 1.5-11.5 2.4-17.2.8-5.4 1.9-10.8 2.8-16.2.6-3.3.9-6.7 1.5-10.1 1.3-7.4 2.8-14.7 4.1-22 1.7-9.9 3.3-19.8 4.9-29.8.2-1.3.5-2.7.2-3.8-.6-2 .2-3.2 1.6-4.1 1.6-1 1.9-2.3 1.3-4z"/>
    <path class="st0" d="M477.2 459.7c-.4-7.2-1-14.3-1.4-21.5-.3-6-.3-12-.7-17.9-1.2-15.8-1.7-31.7-1.8-47.5v-3.9c-9.4.7-17.9 3.3-26.4 5.6.1 7.3 28.7 114.9 32.1 120.4.1-.9.2-1.3.2-1.7-.3-5.2-.8-10.3-1.1-15.5l-.9-18z"/>
    <path class="st0" d="M421.4 288.6c2.3-1.4 4.6-2.9 6.9-4.2 1.6-.9 1.9-1.9.8-3.5-6-.4-9 2.5-7.7 7.7z"/>
    <path class="st0" d="M573.5 285.7c-.6.5-1.3 1-2 1.2-3 .9-3.3 1.2-3.1 4.8 3.6-.8 6.9-2.2 10.2-4-1.2-3-3-3.6-5.1-2z"/>
</svg>
